<svg width="25" height="19" viewBox="0 0 25 19" fill="none" xmlns="http://www.w3.org/2000/svg">
<path d="M15.6313 1.16814C15.38 1.21477 15.1809 1.40678 15.1102 1.65912C15.0395 1.91696 15.1128 2.18851 15.2962 2.36954L21.4186 8.78247L1.742 8.78247C1.72105 8.78247 1.7001 8.78247 1.67915 8.78247C1.31254 8.79893 1.02449 9.12808 1.04282 9.51209C1.06115 9.8961 1.37277 10.1951 1.742 10.1759L21.4186 10.1759L15.2962 16.5888C15.0998 16.7589 15.0081 17.0277 15.0657 17.291C15.1233 17.5488 15.3171 17.7545 15.5659 17.8149C15.8146 17.8752 16.0739 17.7792 16.2336 17.5708L23.5004 9.98112L23.9587 9.47917L23.5004 8.97722L16.2336 1.38758C16.0948 1.23123 15.8958 1.15169 15.6916 1.16814C15.6706 1.16814 15.6523 1.16814 15.6313 1.16814Z" fill="#9EAEC4" stroke="#9EAEC4" stroke-width="0.5"/>
</svg>
