<svg width="22" height="22" viewBox="0 0 22 22" fill="none" xmlns="http://www.w3.org/2000/svg">
<path fill-rule="evenodd" clip-rule="evenodd" d="M10.0745 11.0014L5.4748 6.29012C5.25659 6.06662 5.25643 5.7041 5.47442 5.48039C5.69242 5.25669 6.04603 5.25651 6.26423 5.48001L10.9619 10.2916C10.9872 10.2898 11.0126 10.2898 11.038 10.2916L15.7356 5.48001C15.9538 5.25651 16.3074 5.25669 16.5254 5.48039C16.7434 5.7041 16.7433 6.06662 16.5251 6.29012L11.9254 11.0014L16.5251 15.7127C16.7433 15.9362 16.7434 16.2987 16.5254 16.5224C16.3074 16.7461 15.9538 16.7463 15.7356 16.5228L11.038 11.7112C11.0126 11.7129 10.9872 11.7129 10.9619 11.7112L6.26423 16.5228C6.04603 16.7463 5.69242 16.7461 5.47442 16.5224C5.25643 16.2987 5.25659 15.9362 5.4748 15.7127L10.0745 11.0014Z" fill="#2E1A47"/>
</svg>
