<svg width="22" height="22" viewBox="0 0 22 22" fill="none" xmlns="http://www.w3.org/2000/svg">
<path fill-rule="evenodd" clip-rule="evenodd" d="M16.5058 7.42318L11.0002 11.5969L5.49455 7.42318H16.5058ZM18.026 6.39652H3.97436C3.97017 6.39647 3.96597 6.39647 3.96177 6.39652H3.94888C3.66537 6.39652 3.43555 6.62635 3.43555 6.90986V16.2175C3.43555 16.5011 3.66537 16.7309 3.94888 16.7309H18.0514C18.3349 16.7309 18.5648 16.5011 18.5648 16.2175V6.90986C18.5648 6.62635 18.3349 6.39652 18.0514 6.39652H18.0386C18.0344 6.39647 18.0302 6.39647 18.026 6.39652ZM17.5381 7.92891L11.3103 12.6502C11.1269 12.7892 10.8734 12.7892 10.69 12.6502L4.46221 7.92891V15.7042H17.5381V7.92891Z" fill="#2E1A47"/>
</svg>
