<svg width="23" height="22" viewBox="0 0 23 22" fill="none" xmlns="http://www.w3.org/2000/svg">
<path d="M11.4999 2.41992C16.2385 2.41992 20.0799 6.26132 20.0799 10.9999C20.0799 15.7385 16.2385 19.5799 11.4999 19.5799C6.76132 19.5799 2.91992 15.7385 2.91992 10.9999C2.91992 6.26132 6.76132 2.41992 11.4999 2.41992ZM11.4999 3.44659C7.32833 3.44659 3.94659 6.82833 3.94659 10.9999C3.94659 15.1715 7.32833 18.5533 11.4999 18.5533C15.6715 18.5533 19.0533 15.1715 19.0533 10.9999C19.0533 6.82833 15.6715 3.44659 11.4999 3.44659ZM12.4777 8.92214V13.811H13.6999V15.0333H10.0333V13.811H11.2555L11.255 10.1439L10.0333 10.1444V8.92214H12.4777ZM11.561 5.86659C12.0673 5.86659 12.4777 6.27699 12.4777 6.78326C12.4777 7.28952 12.0673 7.69992 11.561 7.69992C11.0548 7.69992 10.6444 7.28952 10.6444 6.78326C10.6444 6.27699 11.0548 5.86659 11.561 5.86659Z" fill="#2E1A47"/>
</svg>
