<svg width="23" height="22" viewBox="0 0 23 22" fill="none" xmlns="http://www.w3.org/2000/svg">
<path fill-rule="evenodd" clip-rule="evenodd" d="M17.4276 9.20795L17.4277 9.22043C17.4261 10.2658 17.1288 11.2894 16.5616 12.1862L12.8689 17.6742C12.7499 17.851 12.5978 18.0031 12.421 18.1221C11.665 18.6308 10.6397 18.4303 10.131 17.6742L6.4297 12.173C5.87107 11.2894 5.57378 10.2658 5.57227 9.20795C5.64015 5.99482 8.29752 3.44374 11.4891 3.50701C14.7023 3.44374 17.3597 5.99482 17.4276 9.20795ZM11.4891 4.6068C8.88264 4.55548 6.72709 6.62481 6.67214 9.21871C6.67345 10.0566 6.91173 10.877 7.35091 11.5721L11.0436 17.0602C11.2132 17.3122 11.5549 17.379 11.807 17.2095C11.8659 17.1698 11.9166 17.1191 11.9562 17.0602L15.6404 11.5852C16.087 10.8788 16.3252 10.0607 16.3277 9.22494C16.2693 6.62151 14.1151 4.55552 11.4891 4.6068ZM11.4999 11.2167C10.1383 11.2167 9.0237 10.1559 9.0237 8.83335C9.0237 7.51082 10.1383 6.45002 11.4999 6.45002C12.8616 6.45002 13.9761 7.51082 13.9761 8.83335C13.9761 10.1559 12.8616 11.2167 11.4999 11.2167ZM11.4999 10.1167C12.2659 10.1167 12.8761 9.53587 12.8761 8.83335C12.8761 8.13083 12.2659 7.55002 11.4999 7.55002C10.7339 7.55002 10.1237 8.13083 10.1237 8.83335C10.1237 9.53587 10.7339 10.1167 11.4999 10.1167Z" fill="#2E1A47"/>
</svg>
